Adsworth-8PTG0XT0db.ufo
<glyph name="C" format="2">
  <advance width="986"/>
  <outline>
    <contour>
      <point x="555" y="114" type="line" smooth="yes"/>
      <point x="664.0" y="114.0"/>
      <point x="762" y="215"/>
      <point x="757" y="320" type="qcurve" smooth="yes"/>
      <point x="757" y="552" type="line"/>
      <point x="925" y="552" type="line"/>
      <point x="923" y="320" type="line" smooth="yes"/>
      <point x="922" y="147"/>
      <point x="736.0" y="-22.0"/>
      <point x="574" y="-22" type="qcurve" smooth="yes"/>
      <point x="519" y="-22" type="line" smooth="yes"/>
      <point x="349" y="-22"/>
      <point x="152" y="175.0"/>
      <point x="152" y="377" type="qcurve" smooth="yes"/>
      <point x="152" y="1148" type="line" smooth="yes"/>
      <point x="152" y="1340.0"/>
      <point x="367" y="1540"/>
      <point x="517" y="1540" type="qcurve" smooth="yes"/>
      <point x="576" y="1540" type="line" smooth="yes"/>
      <point x="723.0" y="1540.0"/>
      <point x="932" y="1387"/>
      <point x="926" y="1220" type="qcurve" smooth="yes"/>
      <point x="927" y="947" type="line"/>
      <point x="757" y="947" type="line"/>
      <point x="757" y="1170" type="line" smooth="yes"/>
      <point x="757" y="1290"/>
      <point x="650.0" y="1399.0"/>
      <point x="566" y="1399" type="qcurve" smooth="yes"/>
      <point x="528" y="1399" type="line" smooth="yes"/>
      <point x="435" y="1399"/>
      <point x="347.0" y="1281.0"/>
      <point x="347" y="1183" type="qcurve" smooth="yes"/>
      <point x="347" y="314" type="line" smooth="yes"/>
      <point x="347.0" y="206.0"/>
      <point x="434" y="114"/>
      <point x="534" y="114.0" type="qcurve" smooth="yes"/>
    </contour>
  </outline>
</glyph>
<glyph name="G" format="2">
  <advance width="1015"/>
  <outline>
    <contour>
      <point x="547" y="110" type="line" smooth="yes"/>
      <point x="617" y="110"/>
      <point x="741" y="198"/>
      <point x="737" y="377" type="qcurve" smooth="yes"/>
      <point x="733" y="563" type="line"/>
      <point x="602" y="563" type="line"/>
      <point x="602" y="741" type="line"/>
      <point x="898" y="741" type="line"/>
      <point x="900" y="297" type="line" smooth="yes"/>
      <point x="901" y="144"/>
      <point x="684" y="-21"/>
      <point x="562" y="-21" type="qcurve" smooth="yes"/>
      <point x="519" y="-21" type="line" smooth="yes"/>
      <point x="356" y="-21"/>
      <point x="152" y="199"/>
      <point x="152" y="372" type="qcurve" smooth="yes"/>
      <point x="152" y="1132" type="line" smooth="yes"/>
      <point x="152" y="1303"/>
      <point x="355" y="1520"/>
      <point x="504" y="1520" type="qcurve" smooth="yes"/>
      <point x="557" y="1520" type="line" smooth="yes"/>
      <point x="685" y="1520"/>
      <point x="889" y="1341"/>
      <point x="890" y="1193" type="qcurve" smooth="yes"/>
      <point x="891" y="986" type="line"/>
      <point x="713" y="986" type="line"/>
      <point x="713" y="1147" type="line" smooth="yes"/>
      <point x="713.0" y="1258.0"/>
      <point x="618" y="1373"/>
      <point x="552" y="1375" type="qcurve" smooth="yes"/>
      <point x="524" y="1376" type="line" smooth="yes"/>
      <point x="470" y="1378"/>
      <point x="353" y="1273"/>
      <point x="353" y="1178" type="qcurve" smooth="yes"/>
      <point x="353" y="299" type="line" smooth="yes"/>
      <point x="353" y="210"/>
      <point x="466" y="110"/>
      <point x="525" y="110" type="qcurve" smooth="yes"/>
    </contour>
  </outline>
</glyph>
<glyph name="H" format="2">
  <advance width="1120"/>
  <outline>
    <contour>
      <point x="200.0" y="0.0" type="line"/>
      <point x="200.0" y="1500.0" type="line"/>
      <point x="395.0" y="1500.0" type="line"/>
      <point x="395.0" y="0.0" type="line"/>
    </contour>
    <contour>
      <point x="725.0" y="0.0" type="line"/>
      <point x="725.0" y="1500.0" type="line"/>
      <point x="920.0" y="1500.0" type="line"/>
      <point x="920.0" y="0.0" type="line"/>
    </contour>
    <contour>
      <point x="848.0" y="725.0" type="line"/>
      <point x="298.0" y="725.0" type="line"/>
      <point x="298.0" y="871.0" type="line"/>
      <point x="848.0" y="871.0" type="line"/>
    </contour>
  </outline>
</glyph>
<glyph name="P" format="2">
  <advance width="960"/>
  <outline>
    <contour>
      <point x="200" y="0" type="line"/>
      <point x="200" y="1500" type="line"/>
      <point x="397" y="1500" type="line"/>
      <point x="397" y="0" type="line"/>
    </contour>
    <contour>
      <point x="590" y="577" type="qcurve" smooth="yes"/>
      <point x="316" y="577" type="line"/>
      <point x="316" y="717" type="line"/>
      <point x="534" y="717" type="line" smooth="yes"/>
      <point x="631.0" y="717.0"/>
      <point x="698" y="796"/>
      <point x="698" y="870" type="qcurve" smooth="yes"/>
      <point x="698" y="1211" type="line" smooth="yes"/>
      <point x="698" y="1292"/>
      <point x="609.0" y="1366.0"/>
      <point x="537" y="1366" type="qcurve" smooth="yes"/>
      <point x="316" y="1366" type="line"/>
      <point x="316" y="1500" type="line"/>
      <point x="659" y="1500" type="line" smooth="yes"/>
      <point x="756.0" y="1500.0"/>
      <point x="884" y="1360"/>
      <point x="884" y="1249" type="qcurve" smooth="yes"/>
      <point x="884" y="836" type="line" smooth="yes"/>
      <point x="884" y="712"/>
      <point x="739.0" y="577.0"/>
    </contour>
  </outline>
</glyph>
<glyph name="Q" format="2">
  <advance width="1084"/>
  <outline>
    <contour>
      <point x="532" y="28.0" type="line" smooth="yes"/>
      <point x="350" y="28"/>
      <point x="152.0" y="250.0"/>
      <point x="152" y="418" type="qcurve" smooth="yes"/>
      <point x="152" y="1127" type="line" smooth="yes"/>
      <point x="152" y="1285"/>
      <point x="345" y="1518.0"/>
      <point x="529" y="1518.0" type="qcurve" smooth="yes"/>
      <point x="533" y="1518.0" type="line" smooth="yes"/>
      <point x="724" y="1518.0"/>
      <point x="932" y="1295"/>
      <point x="932" y="1127" type="qcurve" smooth="yes"/>
      <point x="932" y="418" type="line" smooth="yes"/>
      <point x="932.0" y="250.0"/>
      <point x="727" y="28"/>
      <point x="537" y="28.0" type="qcurve" smooth="yes"/>
    </contour>
    <contour>
      <point x="533" y="154.0" type="line" smooth="yes"/>
      <point x="594" y="154"/>
      <point x="730.0" y="263.0"/>
      <point x="730" y="368" type="qcurve" smooth="yes"/>
      <point x="730" y="1155" type="line" smooth="yes"/>
      <point x="730" y="1261"/>
      <point x="593" y="1374.0"/>
      <point x="533" y="1374.0" type="qcurve" smooth="yes"/>
      <point x="531" y="1374.0" type="line" smooth="yes"/>
      <point x="474" y="1374.0"/>
      <point x="353" y="1261"/>
      <point x="353" y="1155" type="qcurve" smooth="yes"/>
      <point x="353" y="368" type="line" smooth="yes"/>
      <point x="353.0" y="263.0"/>
      <point x="472" y="154"/>
      <point x="531" y="154.0" type="qcurve" smooth="yes"/>
    </contour>
    <contour>
      <point x="503.0" y="81.0" type="line"/>
      <point x="1086.0" y="55.0" type="line"/>
      <point x="1086.0" y="-110.0" type="line"/>
      <point x="504.0" y="-8.0" type="line"/>
    </contour>
  </outline>
</glyph>
<glyph name="R" format="2">
  <advance width="995"/>
  <outline>
    <contour>
      <point x="200" y="0" type="line"/>
      <point x="200" y="1500" type="line"/>
      <point x="394" y="1500" type="line"/>
      <point x="394" y="0" type="line"/>
    </contour>
    <contour>
      <point x="578" y="626" type="qcurve" smooth="yes"/>
      <point x="321" y="626" type="line"/>
      <point x="321" y="767" type="line"/>
      <point x="505" y="767" type="line" smooth="yes"/>
      <point x="584" y="767"/>
      <point x="668" y="828"/>
      <point x="668" y="884" type="qcurve" smooth="yes"/>
      <point x="668" y="1232" type="line" smooth="yes"/>
      <point x="668" y="1290"/>
      <point x="593" y="1362"/>
      <point x="489" y="1362" type="qcurve" smooth="yes"/>
      <point x="321" y="1362" type="line"/>
      <point x="321" y="1500" type="line"/>
      <point x="559" y="1500" type="line" smooth="yes"/>
      <point x="704" y="1500"/>
      <point x="846" y="1396"/>
      <point x="847" y="1279" type="qcurve" smooth="yes"/>
      <point x="849" y="843" type="line" smooth="yes"/>
      <point x="850" y="728"/>
      <point x="706" y="626"/>
    </contour>
    <contour>
      <point x="714" y="692" type="line"/>
      <point x="995" y="0" type="line"/>
      <point x="786" y="0" type="line"/>
      <point x="535" y="680" type="line"/>
    </contour>
  </outline>
</glyph>
<glyph name="T" format="2">
  <advance width="820"/>
  <outline>
    <contour>
      <point x="324" y="0" type="line"/>
      <point x="324" y="1440" type="line"/>
      <point x="516" y="1440" type="line"/>
      <point x="516" y="0" type="line"/>
    </contour>
    <contour>
      <point x="816" y="1340" type="line"/>
      <point x="4" y="1340" type="line"/>
      <point x="4" y="1500" type="line"/>
      <point x="816" y="1500" type="line"/>
    </contour>
  </outline>
</glyph>
<glyph name="U" format="2">
  <advance width="1062"/>
  <outline>
    <contour>
      <point x="178" y="1500" type="line"/>
      <point x="365" y="1500" type="line"/>
      <point x="365" y="281" type="line" smooth="yes"/>
      <point x="365" y="214"/>
      <point x="427" y="124"/>
      <point x="520" y="124" type="qcurve" smooth="yes"/>
      <point x="534" y="124" type="line" smooth="yes"/>
      <point x="621" y="124"/>
      <point x="689" y="209"/>
      <point x="689" y="270" type="qcurve" smooth="yes"/>
      <point x="689" y="1500" type="line"/>
      <point x="884" y="1500" type="line"/>
      <point x="876" y="370" type="line" smooth="yes"/>
      <point x="875" y="179"/>
      <point x="715" y="-23"/>
      <point x="543" y="-23" type="qcurve" smooth="yes"/>
      <point x="509" y="-23" type="line" smooth="yes"/>
      <point x="368" y="-23"/>
      <point x="178" y="173"/>
      <point x="178" y="379" type="qcurve" smooth="yes"/>
    </contour>
  </outline>
</glyph>
<glyph name="Y" format="2">
  <advance width="840"/>
  <outline>
    <contour>
      <point x="334" y="550" type="line"/>
      <point x="-20" y="1500" type="line"/>
      <point x="180" y="1500" type="line"/>
      <point x="424" y="800" type="line"/>
      <point x="687" y="1500" type="line"/>
      <point x="870" y="1500" type="line"/>
      <point x="507" y="550" type="line"/>
    </contour>
    <contour>
      <point x="323" y="0" type="line"/>
      <point x="323" y="600" type="line"/>
      <point x="518" y="600" type="line"/>
      <point x="518" y="0" type="line"/>
    </contour>
  </outline>
</glyph>
<glyph name="Z" format="2">
  <advance width="774"/>
  <outline>
    <contour>
      <point x="714" y="0" type="line"/>
      <point x="74" y="0" type="line"/>
      <point x="69" y="138" type="line"/>
      <point x="484" y="1342" type="line"/>
      <point x="64" y="1342" type="line"/>
      <point x="64" y="1500" type="line"/>
      <point x="684" y="1500" type="line"/>
      <point x="684" y="1372" type="line"/>
      <point x="260" y="158" type="line"/>
      <point x="714" y="158" type="line"/>
    </contour>
  </outline>
</glyph>
<glyph name="at" format="2">
  <advance width="1528"/>
  <outline>
    <contour>
      <point x="928" y="803" type="qcurve" smooth="yes"/>
      <point x="886" y="515" type="line" smooth="yes"/>
      <point x="866" y="380"/>
      <point x="703" y="263"/>
      <point x="607" y="263" type="qcurve" smooth="yes"/>
      <point x="603" y="263" type="line" smooth="yes"/>
      <point x="504" y="263"/>
      <point x="407" y="450"/>
      <point x="436" y="648" type="qcurve" smooth="yes"/>
      <point x="462" y="823" type="line" smooth="yes"/>
      <point x="483" y="963"/>
      <point x="618" y="1118"/>
      <point x="731" y="1118" type="qcurve" smooth="yes"/>
      <point x="735" y="1118" type="line" smooth="yes"/>
      <point x="837" y="1118"/>
      <point x="948" y="937"/>
    </contour>
    <contour>
      <point x="869" y="725" type="line" smooth="yes"/>
      <point x="888" y="871"/>
      <point x="813" y="1012"/>
      <point x="765" y="1012" type="qcurve" smooth="yes"/>
      <point x="730" y="1012" type="line" smooth="yes"/>
      <point x="689" y="1012"/>
      <point x="656" y="922"/>
      <point x="642" y="814" type="qcurve" smooth="yes"/>
      <point x="619" y="636" type="line" smooth="yes"/>
      <point x="600" y="488"/>
      <point x="608" y="378"/>
      <point x="658" y="378" type="qcurve" smooth="yes"/>
      <point x="670" y="378" type="line" smooth="yes"/>
      <point x="712" y="378"/>
      <point x="840" y="481"/>
      <point x="855" y="606" type="qcurve" smooth="yes"/>
    </contour>
    <contour>
      <point x="876" y="576" type="qcurve" smooth="yes"/>
      <point x="969" y="1121" type="line"/>
      <point x="1116" y="1119" type="line"/>
      <point x="1029" y="477" type="line" smooth="yes"/>
      <point x="1024" y="441"/>
      <point x="1055" y="385"/>
      <point x="1082" y="385" type="qcurve" smooth="yes"/>
      <point x="1200" y="385"/>
      <point x="1362" y="598"/>
      <point x="1362" y="811" type="qcurve" smooth="yes"/>
      <point x="1362" y="1106"/>
      <point x="1030" y="1406"/>
      <point x="764" y="1406" type="qcurve" smooth="yes"/>
      <point x="509" y="1406"/>
      <point x="163" y="1001"/>
      <point x="163" y="675" type="qcurve" smooth="yes"/>
      <point x="163" y="297"/>
      <point x="545" y="-52"/>
      <point x="751" y="-52" type="qcurve" smooth="yes"/>
      <point x="897" y="-52"/>
      <point x="1088" y="31"/>
      <point x="1145" y="89" type="qcurve"/>
      <point x="1195" y="34" type="line"/>
      <point x="1144" y="-47"/>
      <point x="937" y="-182"/>
      <point x="745" y="-182" type="qcurve" smooth="yes"/>
      <point x="488" y="-182"/>
      <point x="51" y="282"/>
      <point x="51" y="675" type="qcurve" smooth="yes"/>
      <point x="51" y="1057"/>
      <point x="452" y="1529"/>
      <point x="761" y="1529" type="qcurve" smooth="yes"/>
      <point x="1081" y="1529"/>
      <point x="1471" y="1130"/>
      <point x="1471" y="830" type="qcurve" smooth="yes"/>
      <point x="1471" y="563"/>
      <point x="1162" y="269"/>
      <point x="984" y="269" type="qcurve" smooth="yes"/>
      <point x="897" y="269"/>
      <point x="846" y="400"/>
    </contour>
  </outline>
</glyph>
<glyph name="braceleft" format="2">
  <advance width="606"/>
  <outline>
    <contour>
      <point x="100" y="541" type="line"/>
      <point x="155" y="541"/>
      <point x="282" y="505"/>
      <point x="282" y="445" type="qcurve" smooth="yes"/>
      <point x="282" y="415"/>
      <point x="232" y="321"/>
      <point x="201" y="278" type="qcurve" smooth="yes"/>
      <point x="165" y="229"/>
      <point x="93" y="94"/>
      <point x="93" y="-28" type="qcurve" smooth="yes"/>
      <point x="93" y="-122"/>
      <point x="290" y="-303"/>
      <point x="476" y="-363" type="qcurve"/>
      <point x="546" y="-255" type="line"/>
      <point x="441" y="-206"/>
      <point x="287" y="-48"/>
      <point x="287" y="-11" type="qcurve" smooth="yes"/>
      <point x="287" y="70"/>
      <point x="342" y="194"/>
      <point x="372" y="241" type="qcurve" smooth="yes"/>
      <point x="403" y="290"/>
      <point x="460" y="386"/>
      <point x="460" y="461" type="qcurve" smooth="yes"/>
      <point x="460" y="496"/>
      <point x="396" y="580"/>
      <point x="330" y="601" type="qcurve"/>
      <point x="397" y="624"/>
      <point x="460" y="726"/>
      <point x="460" y="765" type="qcurve" smooth="yes"/>
      <point x="460" y="836"/>
      <point x="408" y="930"/>
      <point x="379" y="979" type="qcurve" smooth="yes"/>
      <point x="353" y="1021"/>
      <point x="288" y="1152"/>
      <point x="288" y="1227" type="qcurve" smooth="yes"/>
      <point x="288" y="1269"/>
      <point x="431" y="1437"/>
      <point x="553" y="1458" type="qcurve"/>
      <point x="482" y="1572" type="line"/>
      <point x="300" y="1530"/>
      <point x="92" y="1320"/>
      <point x="92" y="1238" type="qcurve" smooth="yes"/>
      <point x="92" y="1140"/>
      <point x="173" y="993"/>
      <point x="205" y="949" type="qcurve" smooth="yes"/>
      <point x="236" y="907"/>
      <point x="282" y="817"/>
      <point x="282" y="773" type="qcurve" smooth="yes"/>
      <point x="282" y="710"/>
      <point x="169" y="681"/>
      <point x="100" y="681" type="qcurve"/>
    </contour>
  </outline>
</glyph>
<glyph name="c" format="2">
  <advance width="824"/>
  <outline>
    <contour>
      <point x="757" y="377" type="line"/>
      <point x="757" y="313" type="line" smooth="yes"/>
      <point x="757" y="169"/>
      <point x="611" y="-15"/>
      <point x="439" y="-15" type="qcurve" smooth="yes"/>
      <point x="427" y="-15" type="line" smooth="yes"/>
      <point x="275" y="-15"/>
      <point x="94" y="150"/>
      <point x="94" y="354" type="qcurve" smooth="yes"/>
      <point x="94" y="731" type="line" smooth="yes"/>
      <point x="94" y="884"/>
      <point x="268" y="1062"/>
      <point x="418" y="1062" type="qcurve" smooth="yes"/>
      <point x="440" y="1062" type="line" smooth="yes"/>
      <point x="588" y="1062"/>
      <point x="753" y="912"/>
      <point x="756" y="763" type="qcurve" smooth="yes"/>
      <point x="758" y="656" type="line"/>
      <point x="578" y="656" type="line"/>
      <point x="578" y="744" type="line" smooth="yes"/>
      <point x="578" y="843"/>
      <point x="515" y="919"/>
      <point x="448" y="919" type="qcurve" smooth="yes"/>
      <point x="427" y="919" type="line" smooth="yes"/>
      <point x="362" y="919"/>
      <point x="287" y="857"/>
      <point x="287" y="741" type="qcurve" smooth="yes"/>
      <point x="287" y="305" type="line" smooth="yes"/>
      <point x="287" y="199"/>
      <point x="363" y="114"/>
      <point x="436" y="114" type="qcurve" smooth="yes"/>
      <point x="445" y="114" type="line" smooth="yes"/>
      <point x="506" y="114"/>
      <point x="578" y="220"/>
      <point x="577" y="306" type="qcurve" smooth="yes"/>
      <point x="577" y="379" type="line"/>
    </contour>
  </outline>
</glyph>
<glyph name="colon" format="2">
  <advance width="610"/>
  <outline>
    <contour>
      <point x="304" y="-10" type="line" smooth="yes"/>
      <point x="364" y="-10"/>
      <point x="452" y="76"/>
      <point x="452" y="141" type="qcurve" smooth="yes"/>
      <point x="452" y="172" type="line" smooth="yes"/>
      <point x="452" y="236"/>
      <point x="368" y="324"/>
      <point x="305" y="324" type="qcurve" smooth="yes"/>
      <point x="299" y="324" type="line" smooth="yes"/>
      <point x="242" y="324"/>
      <point x="158" y="236"/>
      <point x="158" y="172" type="qcurve" smooth="yes"/>
      <point x="158" y="141" type="line" smooth="yes"/>
      <point x="158" y="75"/>
      <point x="239" y="-10"/>
      <point x="299" y="-10" type="qcurve" smooth="yes"/>
    </contour>
    <contour>
      <point x="304" y="693" type="line" smooth="yes"/>
      <point x="364" y="693"/>
      <point x="452" y="779"/>
      <point x="452" y="844" type="qcurve" smooth="yes"/>
      <point x="452" y="875" type="line" smooth="yes"/>
      <point x="452" y="939"/>
      <point x="368" y="1027"/>
      <point x="305" y="1027" type="qcurve" smooth="yes"/>
      <point x="299" y="1027" type="line" smooth="yes"/>
      <point x="242" y="1027"/>
      <point x="158" y="939"/>
      <point x="158" y="875" type="qcurve" smooth="yes"/>
      <point x="158" y="844" type="line" smooth="yes"/>
      <point x="158" y="778"/>
      <point x="239" y="693"/>
      <point x="299" y="693" type="qcurve" smooth="yes"/>
    </contour>
  </outline>
</glyph>
<glyph name="comma" format="2">
  <advance width="590"/>
  <outline>
    <contour>
      <point x="51.0" y="-209.0" type="line"/>
      <point x="194.0" y="172.0" type="line" smooth="yes"/>
      <point x="230" y="267"/>
      <point x="299" y="352"/>
      <point x="349.0" y="352.0" type="qcurve" smooth="yes"/>
      <point x="372.0" y="352.0" type="line" smooth="yes"/>
      <point x="414" y="352"/>
      <point x="465" y="281"/>
      <point x="434.0" y="200.0" type="qcurve" smooth="yes"/>
      <point x="429.0" y="187.0" type="line" smooth="yes"/>
      <point x="406" y="127"/>
      <point x="268.0" y="-149.0"/>
      <point x="220.0" y="-239.0" type="qcurve"/>
    </contour>
  </outline>
</glyph>
<glyph name="d" format="2">
  <advance width="950"/>
  <outline>
    <contour>
      <point x="810" y="0" type="line"/>
      <point x="629" y="0" type="line"/>
      <point x="622" y="1540" type="line"/>
      <point x="800" y="1540" type="line"/>
    </contour>
    <contour>
      <point x="689" y="704" type="qcurve" smooth="yes"/>
      <point x="689" y="295" type="line" smooth="yes"/>
      <point x="689" y="193"/>
      <point x="531" y="-15"/>
      <point x="393" y="-15" type="qcurve" smooth="yes"/>
      <point x="389" y="-15" type="line" smooth="yes"/>
      <point x="230" y="-15"/>
      <point x="94" y="197"/>
      <point x="94" y="367" type="qcurve" smooth="yes"/>
      <point x="94" y="732" type="line" smooth="yes"/>
      <point x="94" y="867"/>
      <point x="242" y="1063"/>
      <point x="401" y="1063" type="qcurve" smooth="yes"/>
      <point x="405" y="1063" type="line" smooth="yes"/>
      <point x="554" y="1063"/>
      <point x="689" y="881"/>
    </contour>
    <contour>
      <point x="636" y="682" type="line" smooth="yes"/>
      <point x="634" y="841"/>
      <point x="529" y="937"/>
      <point x="447" y="937" type="qcurve" smooth="yes"/>
      <point x="442" y="937" type="line" smooth="yes"/>
      <point x="365" y="937"/>
      <point x="285" y="834"/>
      <point x="285" y="709" type="qcurve" smooth="yes"/>
      <point x="285" y="338" type="line" smooth="yes"/>
      <point x="285" y="208"/>
      <point x="365" y="103"/>
      <point x="430" y="103" type="qcurve" smooth="yes"/>
      <point x="435" y="103" type="line" smooth="yes"/>
      <point x="519" y="103"/>
      <point x="641" y="259"/>
      <point x="640" y="367" type="qcurve" smooth="yes"/>
    </contour>
  </outline>
</glyph>
<glyph name="dollar" format="2">
  <advance width="882"/>
  <outline>
    <contour>
      <point x="650.0" y="354.0" type="line" smooth="yes"/>
      <point x="650" y="480"/>
      <point x="479" y="627"/>
      <point x="375.0" y="719.0" type="qcurve" smooth="yes"/>
      <point x="277.0" y="805.0"/>
      <point x="79" y="1015"/>
      <point x="79.0" y="1195.0" type="qcurve" smooth="yes"/>
      <point x="79.0" y="1230.0" type="line" smooth="yes"/>
      <point x="79" y="1360"/>
      <point x="328.0" y="1522.0"/>
      <point x="440.0" y="1522.0" type="qcurve" smooth="yes"/>
      <point x="454.0" y="1522.0" type="line" smooth="yes"/>
      <point x="559.0" y="1522.0"/>
      <point x="793" y="1381"/>
      <point x="785.0" y="1246.0" type="qcurve" smooth="yes"/>
      <point x="785.0" y="1076.0" type="line"/>
      <point x="618.0" y="1076.0" type="line"/>
      <point x="618.0" y="1257.0" type="line" smooth="yes"/>
      <point x="618" y="1324"/>
      <point x="504" y="1381"/>
      <point x="458.0" y="1381.0" type="qcurve" smooth="yes"/>
      <point x="422.0" y="1381.0" type="line" smooth="yes"/>
      <point x="370" y="1381"/>
      <point x="248" y="1294"/>
      <point x="248.0" y="1224.0" type="qcurve" smooth="yes"/>
      <point x="248.0" y="1181.0" type="line" smooth="yes"/>
      <point x="248" y="1091"/>
      <point x="402" y="937"/>
      <point x="491.0" y="866.0" type="qcurve" smooth="yes"/>
      <point x="581" y="794"/>
      <point x="815" y="553"/>
      <point x="815.0" y="368.0" type="qcurve" smooth="yes"/>
      <point x="815.0" y="335.0" type="line" smooth="yes"/>
      <point x="815" y="169"/>
      <point x="573.0" y="-22.0"/>
      <point x="446.0" y="-22.0" type="qcurve" smooth="yes"/>
      <point x="432.0" y="-22.0" type="line" smooth="yes"/>
      <point x="310.0" y="-22.0"/>
      <point x="60" y="174"/>
      <point x="71.0" y="331.0" type="qcurve" smooth="yes"/>
      <point x="71.0" y="476.0" type="line"/>
      <point x="233.0" y="476.0" type="line"/>
      <point x="233.0" y="268.0" type="line" smooth="yes"/>
      <point x="233" y="194"/>
      <point x="353" y="98"/>
      <point x="435.0" y="98.0" type="qcurve" smooth="yes"/>
      <point x="452.0" y="98.0" type="line" smooth="yes"/>
      <point x="538" y="98"/>
      <point x="650" y="228"/>
      <point x="650.0" y="313.0" type="qcurve" smooth="yes"/>
    </contour>
    <contour>
      <point x="363.0" y="-110.0" type="line"/>
      <point x="383.0" y="768.0" type="line"/>
      <point x="503.0" y="768.0" type="line"/>
      <point x="523.0" y="-110.0" type="line"/>
    </contour>
    <contour>
      <point x="384.0" y="804.0" type="line"/>
      <point x="354.0" y="1623.0" type="line"/>
      <point x="534.0" y="1623.0" type="line"/>
      <point x="504.0" y="804.0" type="line"/>
    </contour>
  </outline>
</glyph>
<glyph name="exclam" format="2">
  <advance width="558"/>
  <outline>
    <contour>
      <point x="192.0" y="464.0" type="line"/>
      <point x="172.0" y="1500.0" type="line"/>
      <point x="372.0" y="1500.0" type="line"/>
      <point x="352.0" y="464.0" type="line"/>
    </contour>
    <contour>
      <point x="278" y="-10.0" type="line" smooth="yes"/>
      <point x="332" y="-10.0"/>
      <point x="415" y="59"/>
      <point x="415" y="117" type="qcurve" smooth="yes"/>
      <point x="415" y="141" type="line" smooth="yes"/>
      <point x="415" y="202"/>
      <point x="336" y="269"/>
      <point x="278" y="269" type="qcurve" smooth="yes"/>
      <point x="275" y="269" type="line" smooth="yes"/>
      <point x="222" y="269"/>
      <point x="142" y="202"/>
      <point x="142" y="141" type="qcurve" smooth="yes"/>
      <point x="142" y="117" type="line" smooth="yes"/>
      <point x="142" y="55"/>
      <point x="219" y="-10.0"/>
      <point x="275" y="-10.0" type="qcurve" smooth="yes"/>
    </contour>
  </outline>
</glyph>
<glyph name="four" format="2">
  <advance width="880"/>
  <outline>
    <contour>
      <point x="486.0" y="0.0" type="line"/>
      <point x="506.0" y="1500.0" type="line"/>
      <point x="666.0" y="1497.0" type="line"/>
      <point x="666.0" y="2.0" type="line"/>
    </contour>
    <contour>
      <point x="833.0" y="535.0" type="line"/>
      <point x="833.0" y="398.0" type="line"/>
      <point x="64.0" y="398.0" type="line"/>
      <point x="10.0" y="545.0" type="line"/>
      <point x="446.0" y="1517.0" type="line"/>
      <point x="584.0" y="1503.0" type="line"/>
      <point x="176.0" y="537.0" type="line"/>
    </contour>
  </outline>
</glyph>
<glyph name="greater" format="2">
  <advance width="750"/>
  <outline>
    <contour>
      <point x="740.0" y="817.0" type="line"/>
      <point x="740.0" y="687.0" type="line"/>
      <point x="30.0" y="290.0" type="line"/>
      <point x="25.0" y="474.0" type="line"/>
      <point x="515.0" y="741.0" type="line"/>
      <point x="25.0" y="972.0" type="line"/>
      <point x="30.0" y="1166.0" type="line"/>
    </contour>
  </outline>
</glyph>
<glyph name="k" format="2">
  <advance width="843"/>
  <outline>
    <contour>
      <point x="140" y="0" type="line"/>
      <point x="140" y="1540" type="line"/>
      <point x="326" y="1540" type="line"/>
      <point x="332" y="0" type="line"/>
    </contour>
    <contour>
      <point x="464" y="528" type="line"/>
      <point x="308" y="343" type="line"/>
      <point x="308" y="423" type="line"/>
      <point x="375" y="607" type="line"/>
      <point x="661" y="1040" type="line"/>
      <point x="832" y="1040" type="line"/>
      <point x="506" y="534" type="line"/>
    </contour>
    <contour>
      <point x="560" y="684" type="line"/>
      <point x="864" y="0" type="line"/>
      <point x="667" y="0" type="line"/>
      <point x="435" y="531" type="line"/>
    </contour>
  </outline>
</glyph>
<glyph name="m" format="2">
  <advance width="1362"/>
  <outline>
    <contour>
      <point x="140" y="0" type="line"/>
      <point x="140" y="1040" type="line"/>
      <point x="315" y="1040" type="line"/>
      <point x="325" y="0" type="line"/>
    </contour>
    <contour>
      <point x="284" y="626" type="line"/>
      <point x="291" y="782"/>
      <point x="433" y="1060"/>
      <point x="581" y="1060" type="qcurve" smooth="yes"/>
      <point x="680" y="1060"/>
      <point x="775.0" y="944.0"/>
      <point x="775" y="838" type="qcurve" smooth="yes"/>
      <point x="775" y="0" type="line"/>
      <point x="595" y="0" type="line"/>
      <point x="595" y="809" type="line" smooth="yes"/>
      <point x="595" y="874"/>
      <point x="551" y="921"/>
      <point x="516" y="921" type="qcurve" smooth="yes"/>
      <point x="445" y="921"/>
      <point x="353" y="748"/>
      <point x="306" y="592" type="qcurve"/>
    </contour>
    <contour>
      <point x="731" y="630" type="line"/>
      <point x="740" y="794"/>
      <point x="864" y="1060"/>
      <point x="1003" y="1060.0" type="qcurve" smooth="yes"/>
      <point x="1117" y="1060"/>
      <point x="1230" y="945"/>
      <point x="1230" y="829" type="qcurve" smooth="yes"/>
      <point x="1230" y="0" type="line"/>
      <point x="1050" y="0" type="line"/>
      <point x="1050" y="806" type="line" smooth="yes"/>
      <point x="1050" y="872"/>
      <point x="1001" y="920"/>
      <point x="956" y="920" type="qcurve" smooth="yes"/>
      <point x="885" y="920"/>
      <point x="790" y="765"/>
      <point x="758" y="604" type="qcurve"/>
    </contour>
  </outline>
</glyph>
<glyph name="nine" format="2">
  <advance width="780"/>
  <outline>
    <contour>
      <point x="551.0" y="826.0" type="qcurve"/>
      <point x="551.0" y="1074.0" type="line" smooth="yes"/>
      <point x="551.0" y="1213.0"/>
      <point x="468" y="1392"/>
      <point x="379" y="1392.0" type="qcurve" smooth="yes"/>
      <point x="332.0" y="1392.0" type="line" smooth="yes"/>
      <point x="264.0" y="1392.0"/>
      <point x="198" y="1224"/>
      <point x="198.0" y="1052.0" type="qcurve" smooth="yes"/>
      <point x="198.0" y="938.0" type="line" smooth="yes"/>
      <point x="198" y="774.0"/>
      <point x="284.0" y="649.0"/>
      <point x="369.0" y="649.0" type="qcurve" smooth="yes"/>
      <point x="378.0" y="649.0" type="line" smooth="yes"/>
      <point x="459.0" y="649.0"/>
      <point x="558.0" y="829"/>
      <point x="558.0" y="961.0" type="qcurve" smooth="yes"/>
      <point x="558.0" y="987.0" type="line"/>
      <point x="611.0" y="973.0" type="line"/>
      <point x="611.0" y="959.0" type="line" smooth="yes"/>
      <point x="611.0" y="751.0"/>
      <point x="433.0" y="522.0"/>
      <point x="306.0" y="522.0" type="qcurve" smooth="yes"/>
      <point x="301.0" y="522.0" type="line" smooth="yes"/>
      <point x="182.0" y="522.0"/>
      <point x="44" y="710"/>
      <point x="44.0" y="898.0" type="qcurve" smooth="yes"/>
      <point x="44.0" y="1101.0" type="line" smooth="yes"/>
      <point x="44" y="1290"/>
      <point x="199.0" y="1514.0"/>
      <point x="357.0" y="1514.0" type="qcurve" smooth="yes"/>
      <point x="362.0" y="1514.0" type="line" smooth="yes"/>
      <point x="542.0" y="1514.0"/>
      <point x="693.0" y="1311.0"/>
      <point x="701.0" y="1133.0" type="qcurve" smooth="yes"/>
      <point x="703.0" y="829.0" type="line" smooth="yes"/>
      <point x="715.0" y="376.0"/>
      <point x="353" y="-21"/>
      <point x="151.0" y="-13.0" type="qcurve" smooth="yes"/>
      <point x="127.0" y="-13.0" type="line"/>
      <point x="127.0" y="153.0" type="line"/>
      <point x="141.0" y="154.0" type="line" smooth="yes"/>
      <point x="354" y="169"/>
      <point x="547.0" y="450.0"/>
    </contour>
  </outline>
</glyph>
<glyph name="o" format="2">
  <advance width="940"/>
  <outline>
    <contour>
      <point x="465" y="-14" type="line" smooth="yes"/>
      <point x="279" y="-14"/>
      <point x="94" y="193.0"/>
      <point x="94" y="374" type="qcurve" smooth="yes"/>
      <point x="94" y="709" type="line" smooth="yes"/>
      <point x="94" y="859"/>
      <point x="287" y="1061"/>
      <point x="463" y="1061" type="qcurve" smooth="yes"/>
      <point x="468" y="1061" type="line" smooth="yes"/>
      <point x="677" y="1061"/>
      <point x="846" y="860"/>
      <point x="846" y="709" type="qcurve" smooth="yes"/>
      <point x="846" y="374" type="line" smooth="yes"/>
      <point x="846" y="193"/>
      <point x="688" y="-14"/>
      <point x="470" y="-14" type="qcurve" smooth="yes"/>
    </contour>
    <contour>
      <point x="486" y="110" type="line" smooth="yes"/>
      <point x="583" y="110"/>
      <point x="656" y="211"/>
      <point x="656" y="333" type="qcurve" smooth="yes"/>
      <point x="656" y="730" type="line" smooth="yes"/>
      <point x="656" y="856"/>
      <point x="564" y="932"/>
      <point x="466" y="932" type="qcurve" smooth="yes"/>
      <point x="461" y="932" type="line" smooth="yes"/>
      <point x="404" y="932"/>
      <point x="284" y="856"/>
      <point x="284" y="730" type="qcurve" smooth="yes"/>
      <point x="284" y="333" type="line" smooth="yes"/>
      <point x="284" y="211"/>
      <point x="390.0" y="110.0"/>
      <point x="481" y="110" type="qcurve" smooth="yes"/>
    </contour>
  </outline>
</glyph>
<glyph name="p" format="2">
  <advance width="956"/>
  <outline>
    <contour>
      <point x="140" y="-470" type="line"/>
      <point x="140" y="1040" type="line"/>
      <point x="304" y="1040" type="line"/>
      <point x="334" y="-470" type="line"/>
    </contour>
    <contour>
      <point x="225" y="549" type="line" smooth="yes"/>
      <point x="225" y="778"/>
      <point x="420.0" y="1061.0"/>
      <point x="595" y="1061" type="qcurve" smooth="yes"/>
      <point x="609" y="1061" type="line" smooth="yes"/>
      <point x="724" y="1061"/>
      <point x="862" y="889"/>
      <point x="862" y="734" type="qcurve" smooth="yes"/>
      <point x="862" y="355" type="line" smooth="yes"/>
      <point x="862" y="167"/>
      <point x="723" y="-12"/>
      <point x="584" y="-12" type="qcurve" smooth="yes"/>
      <point x="580" y="-12" type="line" smooth="yes"/>
      <point x="413" y="-12"/>
      <point x="225" y="293"/>
      <point x="225" y="458" type="qcurve" smooth="yes"/>
    </contour>
    <contour>
      <point x="313" y="722" type="qcurve" smooth="yes"/>
      <point x="313" y="419" type="line" smooth="yes"/>
      <point x="313" y="266"/>
      <point x="424.0" y="106"/>
      <point x="519" y="106" type="qcurve" smooth="yes"/>
      <point x="525" y="106" type="line" smooth="yes"/>
      <point x="592.0" y="106.0"/>
      <point x="675" y="209"/>
      <point x="675" y="332" type="qcurve" smooth="yes"/>
      <point x="675" y="713" type="line" smooth="yes"/>
      <point x="675" y="840"/>
      <point x="583" y="940"/>
      <point x="536" y="940" type="qcurve" smooth="yes"/>
      <point x="530" y="940" type="line" smooth="yes"/>
      <point x="446.0" y="940.0"/>
      <point x="313" y="785"/>
    </contour>
  </outline>
</glyph>
<glyph name="parenleft" format="2">
  <advance width="606"/>
  <outline>
    <contour>
      <point x="450.0" y="-377.0" type="line"/>
      <point x="80.0" y="52.0"/>
      <point x="92.0" y="1146.0"/>
      <point x="434.0" y="1571.0" type="qcurve"/>
      <point x="553.0" y="1471.0" type="line"/>
      <point x="265.0" y="1046.0"/>
      <point x="270.0" y="149.0"/>
      <point x="573.0" y="-280.0" type="qcurve"/>
    </contour>
  </outline>
</glyph>
<glyph name="parenright" format="2">
  <advance width="606"/>
  <outline>
    <contour>
      <point x="156.0" y="-377.0" type="qcurve"/>
      <point x="33.0" y="-280.0" type="line"/>
      <point x="341.0" y="149.0"/>
      <point x="346.0" y="1046.0"/>
      <point x="53.0" y="1471.0" type="qcurve"/>
      <point x="172.0" y="1571.0" type="line"/>
      <point x="519.0" y="1116.0"/>
      <point x="520.0" y="82.0"/>
    </contour>
  </outline>
</glyph>
<glyph name="percent" format="2">
  <advance width="1734"/>
  <outline>
    <contour>
      <point x="383.0" y="604.0" type="line" smooth="yes"/>
      <point x="265" y="604"/>
      <point x="87" y="781"/>
      <point x="87.0" y="953.0" type="qcurve" smooth="yes"/>
      <point x="87.0" y="1210.0" type="line" smooth="yes"/>
      <point x="87" y="1362.0"/>
      <point x="264.0" y="1540.0"/>
      <point x="380.0" y="1540.0" type="qcurve" smooth="yes"/>
      <point x="384.0" y="1540.0" type="line" smooth="yes"/>
      <point x="503.0" y="1540.0"/>
      <point x="676.0" y="1362.0"/>
      <point x="676.0" y="1210.0" type="qcurve" smooth="yes"/>
      <point x="676.0" y="953.0" type="line" smooth="yes"/>
      <point x="676" y="781"/>
      <point x="506" y="604"/>
      <point x="386.0" y="604.0" type="qcurve" smooth="yes"/>
    </contour>
    <contour>
      <point x="382.0" y="753.0" type="line" smooth="yes"/>
      <point x="459" y="753"/>
      <point x="529" y="840"/>
      <point x="529.0" y="941.0" type="qcurve" smooth="yes"/>
      <point x="529.0" y="1220.0" type="line" smooth="yes"/>
      <point x="529" y="1306"/>
      <point x="461.0" y="1396.0"/>
      <point x="382.0" y="1396.0" type="qcurve" smooth="yes"/>
      <point x="379.0" y="1396.0" type="line" smooth="yes"/>
      <point x="306.0" y="1396.0"/>
      <point x="239" y="1306"/>
      <point x="239.0" y="1220.0" type="qcurve" smooth="yes"/>
      <point x="239.0" y="941.0" type="line" smooth="yes"/>
      <point x="239" y="840"/>
      <point x="304" y="753"/>
      <point x="379.0" y="753.0" type="qcurve" smooth="yes"/>
    </contour>
    <contour>
      <point x="1357.0" y="-29.0" type="line" smooth="yes"/>
      <point x="1239" y="-29"/>
      <point x="1061" y="148"/>
      <point x="1061.0" y="320.0" type="qcurve" smooth="yes"/>
      <point x="1061.0" y="577.0" type="line" smooth="yes"/>
      <point x="1061" y="729"/>
      <point x="1228" y="907"/>
      <point x="1344.0" y="907.0" type="qcurve" smooth="yes"/>
      <point x="1348.0" y="907.0" type="line" smooth="yes"/>
      <point x="1467" y="907"/>
      <point x="1650" y="729"/>
      <point x="1650.0" y="577.0" type="qcurve" smooth="yes"/>
      <point x="1650.0" y="320.0" type="line" smooth="yes"/>
      <point x="1650" y="148"/>
      <point x="1480" y="-29"/>
      <point x="1360.0" y="-29.0" type="qcurve" smooth="yes"/>
    </contour>
    <contour>
      <point x="1351.0" y="120.0" type="line" smooth="yes"/>
      <point x="1428" y="120"/>
      <point x="1498" y="207"/>
      <point x="1498.0" y="308.0" type="qcurve" smooth="yes"/>
      <point x="1498.0" y="587.0" type="line" smooth="yes"/>
      <point x="1498" y="673"/>
      <point x="1420" y="763"/>
      <point x="1341.0" y="763.0" type="qcurve" smooth="yes"/>
      <point x="1338.0" y="763.0" type="line" smooth="yes"/>
      <point x="1265" y="763"/>
      <point x="1208" y="673"/>
      <point x="1208.0" y="587.0" type="qcurve" smooth="yes"/>
      <point x="1208.0" y="308.0" type="line" smooth="yes"/>
      <point x="1208" y="207"/>
      <point x="1273" y="120"/>
      <point x="1348.0" y="120.0" type="qcurve" smooth="yes"/>
    </contour>
    <contour>
      <point x="366.0" y="0.0" type="line"/>
      <point x="1206.0" y="1500.0" type="line"/>
      <point x="1353.0" y="1500.0" type="line"/>
      <point x="513.0" y="0.0" type="line"/>
    </contour>
  </outline>
</glyph>
<glyph name="q" format="2">
  <advance width="948"/>
  <outline>
    <contour>
      <point x="808" y="-480" type="line"/>
      <point x="633" y="-480" type="line"/>
      <point x="643" y="1060" type="line"/>
      <point x="808" y="1060" type="line"/>
    </contour>
    <contour>
      <point x="687" y="704" type="qcurve" smooth="yes"/>
      <point x="687" y="305" type="line" smooth="yes"/>
      <point x="687" y="203"/>
      <point x="518" y="-15"/>
      <point x="391" y="-15" type="qcurve" smooth="yes"/>
      <point x="387" y="-15" type="line" smooth="yes"/>
      <point x="228" y="-15"/>
      <point x="92" y="197"/>
      <point x="92" y="367" type="qcurve" smooth="yes"/>
      <point x="92" y="732" type="line" smooth="yes"/>
      <point x="92" y="867"/>
      <point x="240" y="1063"/>
      <point x="399" y="1063" type="qcurve" smooth="yes"/>
      <point x="403" y="1063" type="line" smooth="yes"/>
      <point x="552" y="1063"/>
      <point x="687" y="861"/>
    </contour>
    <contour>
      <point x="640" y="682.0" type="line" smooth="yes"/>
      <point x="640" y="811.0"/>
      <point x="530" y="937.0"/>
      <point x="452" y="937.0" type="qcurve" smooth="yes"/>
      <point x="447" y="937.0" type="line" smooth="yes"/>
      <point x="388" y="937.0"/>
      <point x="283.0" y="834.0"/>
      <point x="283.0" y="709.0" type="qcurve" smooth="yes"/>
      <point x="283.0" y="338.0" type="line" smooth="yes"/>
      <point x="283.0" y="208.0"/>
      <point x="367" y="103.0"/>
      <point x="456" y="103.0" type="qcurve" smooth="yes"/>
      <point x="461" y="103.0" type="line" smooth="yes"/>
      <point x="528" y="103.0"/>
      <point x="640" y="219.0"/>
      <point x="640" y="367.0" type="qcurve" smooth="yes"/>
    </contour>
  </outline>
</glyph>
<glyph name="question" format="2">
  <advance width="874"/>
  <outline>
    <contour>
      <point x="347" y="-10" type="line" smooth="yes"/>
      <point x="408" y="-10"/>
      <point x="500" y="73"/>
      <point x="500" y="142" type="qcurve" smooth="yes"/>
      <point x="500" y="171" type="line" smooth="yes"/>
      <point x="500" y="243"/>
      <point x="412" y="324"/>
      <point x="347" y="324" type="qcurve" smooth="yes"/>
      <point x="344" y="324" type="line" smooth="yes"/>
      <point x="285" y="324"/>
      <point x="197" y="243"/>
      <point x="197" y="171" type="qcurve" smooth="yes"/>
      <point x="197" y="142" type="line" smooth="yes"/>
      <point x="197" y="68"/>
      <point x="282" y="-10"/>
      <point x="344" y="-10" type="qcurve" smooth="yes"/>
    </contour>
    <contour>
      <point x="427" y="503" type="line"/>
      <point x="247" y="503" type="line"/>
      <point x="245" y="819" type="line"/>
      <point x="453" y="819"/>
      <point x="590" y="957"/>
      <point x="590" y="1111" type="qcurve" smooth="yes"/>
      <point x="590" y="1146" type="line" smooth="yes"/>
      <point x="590" y="1290"/>
      <point x="502" y="1383"/>
      <point x="434" y="1383" type="qcurve" smooth="yes"/>
      <point x="409" y="1383" type="line" smooth="yes"/>
      <point x="349" y="1383"/>
      <point x="260" y="1296"/>
      <point x="267" y="1210" type="qcurve" smooth="yes"/>
      <point x="269" y="1090" type="line"/>
      <point x="68" y="1090" type="line"/>
      <point x="68" y="1201" type="line" smooth="yes"/>
      <point x="68" y="1334"/>
      <point x="236" y="1522"/>
      <point x="418" y="1522" type="qcurve" smooth="yes"/>
      <point x="449" y="1522" type="line" smooth="yes"/>
      <point x="612" y="1522"/>
      <point x="800.0" y="1349"/>
      <point x="800.0" y="1123" type="qcurve" smooth="yes"/>
      <point x="800.0" y="1102" type="line" smooth="yes"/>
      <point x="800.0" y="880"/>
      <point x="591" y="707"/>
      <point x="426" y="707" type="qcurve"/>
    </contour>
  </outline>
</glyph>
<glyph name="quotedbl" format="2">
  <advance width="874"/>
  <outline>
    <contour>
      <point x="130.0" y="872.0" type="line"/>
      <point x="130.0" y="1500.0" type="line"/>
      <point x="330.0" y="1500.0" type="line"/>
      <point x="330.0" y="872.0" type="line"/>
    </contour>
    <contour>
      <point x="544.0" y="872.0" type="line"/>
      <point x="544.0" y="1500.0" type="line"/>
      <point x="744.0" y="1500.0" type="line"/>
      <point x="744.0" y="872.0" type="line"/>
    </contour>
  </outline>
</glyph>
<glyph name="semicolon" format="2">
  <advance width="610"/>
  <outline>
    <contour>
      <point x="301" y="693" type="line" smooth="yes"/>
      <point x="361" y="693"/>
      <point x="449" y="779"/>
      <point x="449" y="844" type="qcurve" smooth="yes"/>
      <point x="449" y="875" type="line" smooth="yes"/>
      <point x="449" y="939"/>
      <point x="365" y="1027"/>
      <point x="302" y="1027" type="qcurve" smooth="yes"/>
      <point x="296" y="1027" type="line" smooth="yes"/>
      <point x="239" y="1027"/>
      <point x="155" y="939"/>
      <point x="155" y="875" type="qcurve" smooth="yes"/>
      <point x="155" y="844" type="line" smooth="yes"/>
      <point x="155" y="778"/>
      <point x="236" y="693"/>
      <point x="296" y="693" type="qcurve" smooth="yes"/>
    </contour>
    <contour>
      <point x="44.0" y="-209.0" type="line"/>
      <point x="167.0" y="172.0" type="line" smooth="yes"/>
      <point x="190" y="242"/>
      <point x="262.0" y="352.0"/>
      <point x="312.0" y="352.0" type="qcurve" smooth="yes"/>
      <point x="335.0" y="352.0" type="line" smooth="yes"/>
      <point x="377" y="352"/>
      <point x="448" y="281"/>
      <point x="417.0" y="200.0" type="qcurve" smooth="yes"/>
      <point x="412.0" y="187.0" type="line" smooth="yes"/>
      <point x="389" y="127"/>
      <point x="255.0" y="-144.0"/>
      <point x="213.0" y="-239.0" type="qcurve"/>
    </contour>
  </outline>
</glyph>
<glyph name="t" format="2">
  <advance width="554"/>
  <outline>
    <contour>
      <point x="510" y="887" type="line"/>
      <point x="21" y="887" type="line"/>
      <point x="21" y="1031" type="line"/>
      <point x="510" y="1031" type="line"/>
    </contour>
    <contour>
      <point x="321" y="310" type="line" smooth="yes"/>
      <point x="321" y="216"/>
      <point x="390" y="152"/>
      <point x="435" y="152" type="qcurve" smooth="yes"/>
      <point x="475" y="152"/>
      <point x="537" y="173"/>
      <point x="560" y="192" type="qcurve"/>
      <point x="552" y="31" type="line"/>
      <point x="519" y="11"/>
      <point x="424" y="-14"/>
      <point x="369" y="-14" type="qcurve" smooth="yes"/>
      <point x="262" y="-14"/>
      <point x="133" y="132"/>
      <point x="133" y="296" type="qcurve" smooth="yes"/>
      <point x="133" y="1299" type="line"/>
      <point x="321" y="1299" type="line"/>
    </contour>
  </outline>
</glyph>
<glyph name="two" format="2">
  <advance width="700"/>
  <outline>
    <contour>
      <point x="666" y="0" type="line"/>
      <point x="16" y="0" type="line"/>
      <point x="16" y="92" type="line"/>
      <point x="362" y="849" type="line" smooth="yes"/>
      <point x="391" y="919"/>
      <point x="450" y="1085"/>
      <point x="450" y="1148" type="qcurve" smooth="yes"/>
      <point x="450" y="1246" type="line" smooth="yes"/>
      <point x="450" y="1322"/>
      <point x="396" y="1390"/>
      <point x="350" y="1390" type="qcurve" smooth="yes"/>
      <point x="335" y="1390" type="line" smooth="yes"/>
      <point x="293" y="1390"/>
      <point x="227.0" y="1304"/>
      <point x="227" y="1192" type="qcurve" smooth="yes"/>
      <point x="228" y="1064" type="line"/>
      <point x="51" y="1058" type="line"/>
      <point x="51" y="1213" type="line" smooth="yes"/>
      <point x="51" y="1362"/>
      <point x="239.0" y="1520.0"/>
      <point x="341" y="1520" type="qcurve" smooth="yes"/>
      <point x="349" y="1520" type="line" smooth="yes"/>
      <point x="474" y="1520"/>
      <point x="628" y="1374"/>
      <point x="628" y="1258" type="qcurve" smooth="yes"/>
      <point x="628" y="1192" type="line" smooth="yes"/>
      <point x="628" y="1089"/>
      <point x="555" y="881"/>
      <point x="510" y="784" type="qcurve" smooth="yes"/>
      <point x="219" y="158" type="line"/>
      <point x="666" y="158" type="line"/>
    </contour>
  </outline>
</glyph>
<glyph name="w" format="2">
  <advance width="1132"/>
  <outline>
    <contour>
      <point x="233" y="-9" type="line"/>
      <point x="10" y="1040" type="line"/>
      <point x="179" y="1040" type="line"/>
      <point x="330" y="272" type="line"/>
      <point x="490" y="1040" type="line"/>
      <point x="657" y="1040" type="line"/>
      <point x="830" y="272" type="line"/>
      <point x="975" y="1040" type="line"/>
      <point x="1132" y="1040" type="line"/>
      <point x="895" y="-9" type="line"/>
      <point x="749" y="-9" type="line"/>
      <point x="567" y="802" type="line"/>
      <point x="380" y="-9" type="line"/>
    </contour>
  </outline>
</glyph>
<glyph name="x" format="2">
  <advance width="700"/>
  <outline>
    <contour>
      <point x="-5.0" y="1.0" type="line"/>
      <point x="500.0" y="1041.0" type="line"/>
      <point x="677.0" y="1041.0" type="line"/>
      <point x="166.0" y="1.0" type="line"/>
    </contour>
    <contour>
      <point x="519.0" y="1.0" type="line"/>
      <point x="-6.0" y="1041.0" type="line"/>
      <point x="173.0" y="1041.0" type="line"/>
      <point x="706.0" y="1.0" type="line"/>
    </contour>
  </outline>
</glyph>
<glyph name="z" format="2">
  <advance width="714"/>
  <outline>
    <contour>
      <point x="690" y="1" type="line"/>
      <point x="29" y="1" type="line"/>
      <point x="24" y="99" type="line"/>
      <point x="444" y="889" type="line"/>
      <point x="30" y="889" type="line"/>
      <point x="30" y="1040" type="line"/>
      <point x="669" y="1040" type="line"/>
      <point x="669" y="967" type="line"/>
      <point x="222" y="151" type="line"/>
      <point x="690" y="151" type="line"/>
    </contour>
  </outline>
</glyph>
<glyph name="zero" format="2">
  <advance width="810"/>
  <outline>
    <contour>
      <point x="390.0" y="-14.0" type="line" smooth="yes"/>
      <point x="266" y="-14"/>
      <point x="79" y="167"/>
      <point x="79.0" y="339.0" type="qcurve" smooth="yes"/>
      <point x="79.0" y="1153.0" type="line" smooth="yes"/>
      <point x="79" y="1335"/>
      <point x="264" y="1516"/>
      <point x="388.0" y="1516.0" type="qcurve" smooth="yes"/>
      <point x="429.0" y="1516.0" type="line" smooth="yes"/>
      <point x="545" y="1516"/>
      <point x="731" y="1335"/>
      <point x="731.0" y="1153.0" type="qcurve" smooth="yes"/>
      <point x="731.0" y="339.0" type="line" smooth="yes"/>
      <point x="731" y="157"/>
      <point x="546" y="-14"/>
      <point x="431.0" y="-14.0" type="qcurve" smooth="yes"/>
    </contour>
    <contour>
      <point x="418.0" y="102.0" type="line" smooth="yes"/>
      <point x="490" y="102"/>
      <point x="553" y="193"/>
      <point x="553.0" y="314.0" type="qcurve" smooth="yes"/>
      <point x="553.0" y="1150.0" type="line" smooth="yes"/>
      <point x="553" y="1291"/>
      <point x="492" y="1386"/>
      <point x="418.0" y="1386.0" type="qcurve" smooth="yes"/>
      <point x="401.0" y="1386.0" type="line" smooth="yes"/>
      <point x="331" y="1386"/>
      <point x="257" y="1291"/>
      <point x="257.0" y="1150.0" type="qcurve" smooth="yes"/>
      <point x="257.0" y="314.0" type="line" smooth="yes"/>
      <point x="257" y="193"/>
      <point x="329" y="102"/>
      <point x="401.0" y="102.0" type="qcurve" smooth="yes"/>
    </contour>
  </outline>
</glyph>
